<svg id="Layer_1" data-name="Layer 1" xmlns="http://www.w3.org/2000/svg" xmlns:xlink="http://www.w3.org/1999/xlink" viewBox="0 0 1000 1000"><defs><style>.cls-1{fill:url(#radial-gradient);}.cls-2{fill:#cac8cc;}</style><radialGradient id="radial-gradient" cx="988.16" cy="66.77" r="230.29" gradientTransform="translate(-370.71 285.83) scale(1.1 1.1)" gradientUnits="userSpaceOnUse"><stop offset="0" stop-color="#feee00"/><stop offset="0.2" stop-color="#feec04"/><stop offset="0.41" stop-color="#fee410"/><stop offset="0.61" stop-color="#fed824"/><stop offset="0.81" stop-color="#ffc740"/><stop offset="1" stop-color="#ffb361"/></radialGradient></defs><path class="cls-1" d="M458.2,290.88c121.24,0,225,90.78,258.08,220.69,9.11-1.89,18.69-3.32,26.71-3.32,61.48,0,115.62,36.68,146.59,91.93,63.5-58.08,100-145.51,87.92-240.71C961.9,236.22,862.81,136.7,740.1,121c-130.2-16.61-245.78,58.69-291.13,170C452,291,455.11,290.88,458.2,290.88Z"/><path class="cls-2" d="M762.06,471.57c-8,0-17.6,1.43-26.71,3.32C702.22,345,598.51,254.2,477.27,254.2S252.31,345,219.19,474.89c-9.12-1.89-18.69-3.32-26.71-3.32-96,0-174,89.38-174,199.25s78.07,199.25,174,199.25H762.06c96,0,174-89.38,174-199.25S858,471.57,762.06,471.57Zm0,326H192.48c-61.07,0-110.76-56.88-110.76-126.79S131.41,544,192.48,544c4.38,0,11.44,1.24,18.89,2.94v33.29c0,20,14.17,36.23,31.65,36.23s31.64-16.22,31.64-36.23V521.82c17-113.21,101.85-195.17,202.61-195.17S662.94,408.7,679.91,522v58.25c0,20,14.17,36.23,31.64,36.23s31.65-16.22,31.65-36.23V547c7.44-1.7,14.52-3,18.86-3,61.06,0,110.75,56.89,110.75,126.8S823.12,797.61,762.06,797.61Z"/></svg>