<svg id="Layer_1" data-name="Layer 1" xmlns="http://www.w3.org/2000/svg" viewBox="0 0 1000 1000"><defs><style>.cls-1{fill:#0a0a4c;}</style></defs><path class="cls-1" d="M801.47,409.33c-8.57,0-18.8,1.43-28.54,3.33C737.55,282.6,626.77,191.72,497.27,191.72S257,282.6,221.61,412.66c-9.74-1.9-20-3.33-28.54-3.33-102.5,0-185.9,89.48-185.9,199.48s83.4,199.47,185.9,199.47h608.4c102.5,0,185.89-89.48,185.89-199.47S904,409.33,801.47,409.33Zm0,326.41H193.07c-65.23,0-118.3-57-118.3-126.93s53.07-126.94,118.3-126.94c4.69,0,12.22,1.24,20.19,2.94v33.32c0,20,15.13,36.27,33.8,36.27s33.79-16.24,33.79-36.27V459.64C299,346.3,389.65,264.26,497.27,264.26s198.32,82.13,216.44,195.56v58.31c0,20,15.14,36.27,33.8,36.27s33.8-16.24,33.8-36.27V484.82c8-1.7,15.52-2.95,20.16-2.95,65.22,0,118.29,57,118.29,126.94S866.69,735.74,801.47,735.74Z"/></svg>