<svg id="Layer_1" data-name="Layer 1" xmlns="http://www.w3.org/2000/svg" viewBox="0 0 1000 1000"><defs><style>.cls-1{fill:#0a0a4c;}</style></defs><path class="cls-1" d="M804.2,409.54c-8.57,0-18.8,1.43-28.54,3.33C740.28,282.81,629.5,191.93,500,191.93S259.71,282.81,224.34,412.87c-9.74-1.9-20-3.33-28.54-3.33C93.3,409.54,9.91,499,9.91,609S93.3,808.49,195.8,808.49H804.2C906.7,808.49,990.09,719,990.09,609S906.7,409.54,804.2,409.54Zm0,326.42H195.8C130.57,736,77.5,679,77.5,609s53.07-126.94,118.3-126.94c4.69,0,12.22,1.24,20.19,2.94v33.33c0,20,15.13,36.26,33.8,36.26s33.8-16.24,33.8-36.26v-58.5C301.77,346.51,392.38,264.47,500,264.47S698.33,346.6,716.45,460v58.32c0,20,15.13,36.26,33.8,36.26s33.8-16.24,33.8-36.26V485c8-1.7,15.51-2.95,20.15-2.95,65.22,0,118.3,56.95,118.3,126.94S869.42,736,804.2,736Z"/></svg>