<svg id="Layer_1" data-name="Layer 1" xmlns="http://www.w3.org/2000/svg" viewBox="0 0 1000 1000"><defs><style>.cls-1{fill:#cac8cc;}</style></defs><path class="cls-1" d="M836.6,376.64a117.78,117.78,0,0,0-22.28,2.72c-27.62-106-114.1-180.12-215.21-180.12-80,0-150.84,46.43-190.61,118.35C492,340.77,558.88,411,583.4,504.05c8.31-1.67,17.05-2.94,24.36-2.94,87.53,0,158.74,78.86,158.74,175.78a194,194,0,0,1-1.64,25H836.6c80,0,145.13-73,145.13-162.62S916.63,376.64,836.6,376.64Z"/><path class="cls-1" d="M638.28,479A119.81,119.81,0,0,0,616,481.63C588.39,377.4,501.92,304.57,400.83,304.57S213.26,377.4,185.65,481.63A119.81,119.81,0,0,0,163.38,479c-80,0-145.11,71.71-145.11,159.86S83.36,798.68,163.38,798.68h474.9c80,0,145.11-71.72,145.11-159.86S718.29,479,638.28,479Zm0,261.59H163.38C112.46,740.55,71,694.9,71,638.82s41.42-101.73,92.34-101.73c3.66,0,9.54,1,15.75,2.36v26.71c0,16.05,11.82,29.06,26.39,29.06s26.38-13,26.38-29.06V519.28c14.19-90.83,84.92-156.58,168.93-156.58s154.81,65.82,169,156.72v46.74c0,16.05,11.82,29.06,26.39,29.06s26.38-13,26.38-29.06v-26.7c6.21-1.36,12.11-2.37,15.73-2.37,50.91,0,92.34,45.64,92.34,101.73S689.19,740.55,638.28,740.55Z"/></svg>