<svg id="Layer_1" data-name="Layer 1" xmlns="http://www.w3.org/2000/svg" viewBox="0 0 1000 1000"><defs><style>.cls-1{fill:#0a0a4c;}</style></defs><path class="cls-1" d="M836.6,375.68a117.78,117.78,0,0,0-22.28,2.72c-27.62-106-114.1-180.12-215.21-180.12-80,0-150.84,46.43-190.61,118.35C492,339.81,558.88,410.08,583.4,503.09c8.31-1.67,17.05-2.94,24.36-2.94,87.53,0,158.74,78.86,158.74,175.78a194,194,0,0,1-1.64,25H836.6c80,0,145.13-72.95,145.13-162.62S916.63,375.68,836.6,375.68Z"/><path class="cls-1" d="M638.28,478A119.81,119.81,0,0,0,616,480.67C588.39,376.44,501.92,303.61,400.83,303.61S213.26,376.44,185.65,480.67A119.81,119.81,0,0,0,163.38,478c-80,0-145.11,71.71-145.11,159.86S83.36,797.72,163.38,797.72h474.9c80,0,145.11-71.72,145.11-159.86S718.29,478,638.28,478Zm0,261.59H163.38C112.46,739.59,71,694,71,637.86s41.42-101.73,92.34-101.73c3.66,0,9.54,1,15.75,2.36V565.2c0,16,11.82,29.06,26.39,29.06s26.38-13,26.38-29.06V518.32c14.19-90.83,84.92-156.58,168.93-156.58s154.81,65.82,169,156.72V565.2c0,16,11.82,29.06,26.39,29.06s26.38-13,26.38-29.06V538.5c6.21-1.36,12.11-2.37,15.73-2.37,50.91,0,92.34,45.64,92.34,101.73S689.19,739.59,638.28,739.59Z"/></svg>