<svg id="Layer_1" data-name="Layer 1" xmlns="http://www.w3.org/2000/svg" viewBox="0 0 1000 1000"><defs><style>.cls-1{fill:#cac8cc;}.cls-2{fill:#4051d1;}</style></defs><path class="cls-1" d="M832.7,197.11a117.3,117.3,0,0,0-22,2.67C783.38,95.57,697.9,22.76,598,22.76c-79.1,0-149.1,45.63-188.41,116.31,82.49,22.78,148.63,91.84,172.87,183.25,8.22-1.64,16.85-2.88,24.08-2.88,86.52,0,156.9,77.49,156.9,172.75a191,191,0,0,1-1.61,24.56h70.9c79.1,0,143.45-71.7,143.45-159.82S911.8,197.11,832.7,197.11Z"/><path class="cls-1" d="M636.68,297.67a119.47,119.47,0,0,0-22,2.62c-27.3-102.44-112.76-174-212.68-174s-185.39,71.58-212.69,174a119.36,119.36,0,0,0-22-2.62c-79.09,0-143.43,70.47-143.43,157.1S88.19,611.88,167.28,611.88h469.4c79.08,0,143.43-70.48,143.43-157.11S715.76,297.67,636.68,297.67Zm0,257.08H167.28C117,554.75,76,509.9,76,454.77s41-100,91.28-100c3.61,0,9.43,1,15.57,2.31v26.25c0,15.78,11.68,28.57,26.08,28.57S235,399.14,235,383.36V337.29C249,248,318.94,183.41,402,183.41s153,64.69,167,154v45.93c0,15.78,11.68,28.57,26.08,28.57s26.08-12.79,26.08-28.57V357.13c6.14-1.34,12-2.33,15.55-2.33,50.32,0,91.27,44.85,91.27,100S687,554.75,636.68,554.75Z"/><path class="cls-2" d="M423.87,636.59c-18.2,0-32.95,14-32.95,31.36v282.3c0,17.32,14.75,31.36,32.95,31.36s32.95-14,32.95-31.36V668C456.82,650.63,442.07,636.59,423.87,636.59Z"/><path class="cls-2" d="M266.41,524.52c-18.19,0-33,14-33,31.36v282.3c0,17.32,14.76,31.36,33,31.36s33-14,33-31.36V555.88C299.37,538.56,284.61,524.52,266.41,524.52Z"/><path class="cls-2" d="M569.56,524.52c-18.2,0-32.95,14-32.95,31.36v282.3c0,17.32,14.75,31.36,32.95,31.36s33-14,33-31.36V555.88C602.51,538.56,587.76,524.52,569.56,524.52Z"/></svg>