<svg id="Layer_1" data-name="Layer 1" xmlns="http://www.w3.org/2000/svg" xmlns:xlink="http://www.w3.org/1999/xlink" viewBox="0 0 1000 1000"><defs><style>.cls-1{fill:url(#radial-gradient);}.cls-2{fill:#cac8cc;}.cls-3{fill:#4051d1;}</style><radialGradient id="radial-gradient" cx="1068.47" cy="3219.93" r="230.29" gradientTransform="translate(-323.81 -2626.95) scale(0.99 0.88)" gradientUnits="userSpaceOnUse"><stop offset="0" stop-color="#feee00"/><stop offset="0.2" stop-color="#feec04"/><stop offset="0.41" stop-color="#fee410"/><stop offset="0.61" stop-color="#fed824"/><stop offset="0.81" stop-color="#ffc740"/><stop offset="1" stop-color="#ffb361"/></radialGradient></defs><path class="cls-1" d="M499.86,161.2c108.9,0,202,72.68,231.79,176.68a139.62,139.62,0,0,1,24-2.66c55.22,0,103.84,29.37,131.66,73.6,57-46.5,89.79-116.49,79-192.71-14-98.68-103-178.35-213.21-190.89C636.11,11.91,532.3,72.2,491.57,161.35,494.32,161.26,497.09,161.2,499.86,161.2Z"/><path class="cls-2" d="M772.77,305.85a138.59,138.59,0,0,0-24,2.67C719,204.51,625.88,131.83,517,131.83S315,204.51,285.2,308.52a138.59,138.59,0,0,0-24-2.67c-86.19,0-156.31,71.56-156.31,159.52S175,624.89,261.21,624.89H772.77c86.19,0,156.31-71.56,156.31-159.52S859,305.85,772.77,305.85Zm0,261H261.21c-54.85,0-99.47-45.55-99.47-101.52s44.62-101.51,99.47-101.51c3.94,0,10.27,1,17,2.35v26.65c0,16,12.72,29,28.42,29s28.42-13,28.42-29V346.09c15.29-90.64,91.48-156.25,182-156.25s166.76,65.68,182,156.39v46.63c0,16,12.72,29,28.42,29s28.42-13,28.42-29V366.23c6.69-1.36,13-2.37,16.94-2.37,54.84,0,99.47,45.54,99.47,101.51S827.61,566.89,772.77,566.89Z"/><path class="cls-2" d="M769.26,316.43A142.29,142.29,0,0,0,745.59,319c-29.34-99.2-121.2-168.52-228.6-168.52S317.72,219.77,288.39,319a142.29,142.29,0,0,0-23.67-2.54c-85,0-154.16,68.26-154.16,152.16s69.16,152.15,154.16,152.15H769.26c85,0,154.16-68.26,154.16-152.15S854.26,316.43,769.26,316.43Zm0,249H264.72c-54.09,0-98.1-43.44-98.1-96.82s44-96.83,98.1-96.83c3.89,0,10.14.95,16.74,2.24v25.42a28,28,0,0,0,56.06,0V354.81c15.08-86.45,90.22-149,179.47-149s164.47,62.65,179.5,149.17v44.48a28,28,0,0,0,56.06,0V374c6.59-1.3,12.86-2.26,16.71-2.26,54.09,0,98.1,43.44,98.1,96.83S823.35,565.41,769.26,565.41Z"/><path class="cls-3" d="M540.52,640.07c-19.56,0-35.41,13.7-35.41,30.6V946c0,16.9,15.85,30.6,35.41,30.6s35.42-13.7,35.42-30.6V670.67C575.94,653.77,560.08,640.07,540.52,640.07Z"/><path class="cls-3" d="M371.28,530.76c-19.56,0-35.42,13.7-35.42,30.59V836.71c0,16.9,15.86,30.6,35.42,30.6s35.42-13.7,35.42-30.6V561.35C406.7,544.46,390.84,530.76,371.28,530.76Z"/><path class="cls-3" d="M697.12,530.76c-19.56,0-35.42,13.7-35.42,30.59V836.71c0,16.9,15.86,30.6,35.42,30.6s35.41-13.7,35.41-30.6V561.35C732.53,544.46,716.67,530.76,697.12,530.76Z"/></svg>