<svg id="Layer_1" data-name="Layer 1" xmlns="http://www.w3.org/2000/svg" viewBox="0 0 1000 1000"><defs><style>.cls-1{fill:#cac8cc;}.cls-2{fill:#f9f31c;}</style></defs><path class="cls-1" d="M832.72,296.14a118.76,118.76,0,0,0-22,2.63C783.4,196.23,697.91,124.58,598,124.58c-79.1,0-149.11,44.9-188.42,114.45,82.5,22.42,148.65,90.37,172.88,180.32,8.22-1.61,16.86-2.84,24.09-2.84,86.52,0,156.9,76.26,156.9,170a185,185,0,0,1-1.61,24.17h70.91c79.1,0,143.46-70.55,143.46-157.26S911.82,296.14,832.72,296.14Z"/><path class="cls-1" d="M636.69,395.09a121,121,0,0,0-22,2.58C587.37,296.88,501.9,226.44,402,226.44s-185.4,70.44-212.7,171.23a120.89,120.89,0,0,0-22-2.58c-79.09,0-143.44,69.35-143.44,154.59s64.35,154.6,143.44,154.6H636.69c79.09,0,143.43-69.35,143.43-154.6S715.78,395.09,636.69,395.09Zm0,253H167.26c-50.34,0-91.28-44.14-91.28-98.38s40.94-98.37,91.28-98.37c3.61,0,9.43,1,15.57,2.28v25.82c0,15.53,11.68,28.11,26.08,28.11S235,494.94,235,479.41V434.08c14-87.84,83.94-151.42,167-151.42s153,63.65,167,151.56v45.19c0,15.53,11.68,28.11,26.08,28.11s26.08-12.58,26.08-28.11V453.6c6.14-1.32,12-2.29,15.55-2.29,50.32,0,91.27,44.13,91.27,98.37S687,648.06,636.69,648.06Z"/><polygon class="cls-2" points="246.79 713.37 334.81 561.05 422.82 561.05 364.14 667.67 422.82 667.67 246.79 880.92 320.14 713.37 246.79 713.37"/></svg>