<svg id="Layer_1" data-name="Layer 1" xmlns="http://www.w3.org/2000/svg" viewBox="0 0 1000 1000"><defs><style>.cls-1{fill:#0a0a4c;}.cls-2{fill:#f9f31c;}</style></defs><path class="cls-1" d="M836.11,258.75a118.87,118.87,0,0,0-22,2.63C786.78,158.84,701.3,87.19,601.36,87.19c-79.1,0-149.11,44.9-188.42,114.45C495.43,224.06,561.58,292,585.82,382c8.22-1.61,16.85-2.84,24.08-2.84,86.52,0,156.91,76.26,156.91,170a185,185,0,0,1-1.61,24.17h70.91c79.1,0,143.45-70.55,143.45-157.26S915.21,258.75,836.11,258.75Z"/><path class="cls-1" d="M640.07,357.7a121.09,121.09,0,0,0-22,2.58c-27.3-100.79-112.77-171.23-212.69-171.23S220,259.49,192.66,360.28a121,121,0,0,0-22-2.58C91.55,357.7,27.2,427.05,27.2,512.29s64.35,154.6,143.44,154.6H640.07c79.09,0,143.44-69.35,143.44-154.6S719.16,357.7,640.07,357.7Zm0,253H170.64c-50.33,0-91.28-44.14-91.28-98.38s41-98.37,91.28-98.37c3.62,0,9.43,1,15.57,2.28V442c0,15.53,11.68,28.11,26.08,28.11s26.08-12.58,26.08-28.11V396.69c14-87.84,83.95-151.42,167-151.42s153,63.65,167,151.56V442c0,15.53,11.68,28.11,26.08,28.11s26.08-12.58,26.08-28.11V416.21c6.14-1.32,12-2.29,15.55-2.29,50.33,0,91.28,44.13,91.28,98.37S690.4,610.67,640.07,610.67Z"/><polygon class="cls-2" points="250.18 675.98 338.19 523.66 426.2 523.66 367.53 630.28 426.2 630.28 250.18 843.53 323.52 675.98 250.18 675.98"/></svg>