<svg id="Layer_1" data-name="Layer 1" xmlns="http://www.w3.org/2000/svg" viewBox="0 0 1000 1000"><defs><style>.cls-1{fill:#2eeaff;}</style></defs><path class="cls-1" d="M959.15,695,853.44,641.63l60.16-14.09c18.17-4.26,28.94-20.58,24.06-36.45s-23.54-25.37-41.68-21l-125.9,29.5-93.49-47.19,111.19-26.05c14-3.29,24.15-14,25.14-26.7s-7.31-24.51-20.7-29.45l-98.07-36.24,76-38.35L896,425.05a38.33,38.33,0,0,0,8.83,1c15,0,28.78-8.78,32.85-22.07,4.87-15.88-5.91-32.2-24.06-36.45l-60.11-14.08,105.69-53.36c16.29-8.22,21.86-26.42,12.47-40.66s-30.25-19.12-46.5-10.9L819.44,301.91l16.08-52.53c4.87-15.89-5.91-32.21-24.06-36.45s-36.81,5.17-41.68,21L736.07,344l-75.94,38.35L673.25,290c1.7-11.87-4.9-23.47-16.75-29.46a38.21,38.21,0,0,0-37.54,2l-84.89,56.13V242l92.1-80.54c13.3-11.62,13.3-30.46,0-42.08s-34.83-11.63-48.13,0l-44,38.45V51.15c0-16.44-15.24-29.77-34-29.77s-34,13.33-34,29.77V157.9l-44-38.51c-13.29-11.63-34.83-11.63-48.13,0s-13.29,30.46,0,42.08L466,242.07v76.64L381.06,262.5a38.06,38.06,0,0,0-39.54-1c-12.07,7.09-17.65,20.11-13.88,32.39l29.82,97.32L264,344.07,230.22,234c-4.85-15.87-23.53-25.35-41.68-21.05s-28.93,20.58-24.06,36.45L180.58,302,74.88,248.6c-16.32-8.22-37.09-3.34-46.5,10.9s-3.82,32.44,12.47,40.66l105.68,53.35L86.45,367.59C68.28,371.85,57.51,388.17,62.38,404c4.08,13.29,17.82,22.07,32.86,22.07a38.67,38.67,0,0,0,8.82-1L229.89,395.6l93.47,47.18-111.12,26c-14,3.29-24.15,14-25.14,26.7S194.41,520,207.8,525l98,36.24-76,38.35L104.08,570.08c-18.13-4.3-36.83,5.17-41.68,21s5.9,32.19,24.07,36.45l60,14.08L40.85,695C24.56,703.2,19,721.4,28.38,735.64c6.32,9.55,17.75,14.88,29.52,14.88a37.75,37.75,0,0,0,17-4l105.73-53.38-16.12,52.61c-4.87,15.87,5.9,32.19,24.07,36.44a38.14,38.14,0,0,0,8.82,1c15,0,28.79-8.78,32.86-22.08L264,651.08l75.92-38.32-13.13,92.38c-1.69,11.86,4.9,23.45,16.75,29.44a38.2,38.2,0,0,0,37.55-2L466,676.39v76.69l-92.15,80.58c-13.3,11.62-13.3,30.46,0,42.08s34.83,11.63,48.13,0l44-38.49V944c0,16.44,15.24,29.77,34,29.77s34-13.33,34-29.77V837.28l44,38.46a37.57,37.57,0,0,0,48.13,0c13.29-11.62,13.29-30.46,0-42.08l-92.12-80.55V676.44l85,56.21a37.21,37.21,0,0,0,20.52,6,37.6,37.6,0,0,0,19-5.07c12.07-7.11,17.64-20.13,13.86-32.41L642.63,604l93.5,47.2,33.67,110c4.07,13.3,17.81,22.08,32.85,22.08a38.89,38.89,0,0,0,8.83-1c18.14-4.25,28.93-20.57,24.06-36.45l-16.07-52.5,105.65,53.33a37.81,37.81,0,0,0,17,4c11.77,0,23.2-5.33,29.52-14.88C981,721.43,975.44,703.23,959.15,695ZM674.44,491.24l-81.22,19-25.16-12.72,52.2-26.36ZM595.78,352.51l-9.54,67.14L534.07,446V393.31Zm-176.73,9.78,46.95,31v52.71l-25.18-12.72Zm-93.48,141.6,81.15-19,25.16,12.7-52.17,26.35Zm78.67,138.72,9.52-67.15L466,549.08v52.69ZM581,632.86l-46.93-31V549.15l25.12,12.7Z"/></svg>