<svg id="Layer_1" data-name="Layer 1" xmlns="http://www.w3.org/2000/svg" viewBox="0 0 1000 1000"><defs><style>.cls-1{fill:#2eeaff;}</style></defs><path class="cls-1" d="M962.42,701.83,856.71,648.46l60.16-14.1c18.17-4.26,28.94-20.58,24.07-36.44s-23.55-25.38-41.68-21l-125.91,29.5-93.48-47.18,111.18-26.06c14-3.28,24.15-14,25.14-26.69s-7.31-24.52-20.7-29.46l-98.07-36.24,76-38.35,125.85,29.48a38.35,38.35,0,0,0,8.83,1c15,0,28.78-8.78,32.85-22.08,4.87-15.88-5.91-32.2-24.06-36.44L856.73,360.3l105.69-53.36c16.29-8.22,21.86-26.42,12.47-40.66s-30.25-19.12-46.5-10.9L822.71,308.73,838.8,256.2c4.86-15.89-5.92-32.21-24.07-36.45s-36.81,5.17-41.68,21l-33.7,110-76,38.35,13.12-92.36c1.7-11.87-4.9-23.47-16.75-29.46a38.21,38.21,0,0,0-37.54,2L537.34,325.5V248.83l92.1-80.54c13.3-11.62,13.3-30.45,0-42.08s-34.83-11.63-48.13,0l-44,38.45V58c0-16.44-15.24-29.76-34-29.76s-34,13.32-34,29.76V164.72l-44-38.51c-13.29-11.63-34.83-11.63-48.13,0s-13.29,30.46,0,42.08l92.16,80.6v76.64l-84.94-56.21a38.08,38.08,0,0,0-39.54-1c-12.06,7.09-17.65,20.11-13.88,32.39l29.82,97.32-93.49-47.18-33.75-110c-4.85-15.87-23.53-25.35-41.68-21s-28.93,20.57-24.06,36.44l16.1,52.55L78.15,255.43c-16.32-8.23-37.09-3.35-46.5,10.9S27.83,298.76,44.12,307L149.8,360.33,89.72,374.41C71.55,378.67,60.79,395,65.65,410.86c4.08,13.3,17.82,22.07,32.86,22.07a38.67,38.67,0,0,0,8.82-1l125.83-29.48,93.47,47.18-111.12,26c-14,3.29-24.15,14-25.14,26.7s7.31,24.51,20.7,29.45l98,36.25-76,38.35L107.35,576.9c-18.13-4.3-36.82,5.17-41.68,21s5.9,32.19,24.07,36.45l60,14.08L44.12,701.8C27.83,710,22.26,728.22,31.65,742.46,38,752,49.4,757.34,61.17,757.34a37.62,37.62,0,0,0,17-4L183.88,700l-16.12,52.6c-4.87,15.87,5.9,32.19,24.07,36.45a38.12,38.12,0,0,0,8.82,1c15,0,28.79-8.78,32.86-22.07l33.73-110.1,75.92-38.32L330,712c-1.69,11.86,4.91,23.46,16.76,29.44a38.21,38.21,0,0,0,37.54-2l84.95-56.15V759.9l-92.15,80.58c-13.29,11.63-13.29,30.46,0,42.09s34.83,11.62,48.13,0l44-38.5V950.81c0,16.43,15.24,29.76,34,29.76s34-13.33,34-29.76V844.1l44,38.47a37.6,37.6,0,0,0,48.13,0c13.29-11.63,13.29-30.46,0-42.09l-92.12-80.55V683.26l85,56.21a38,38,0,0,0,39.53,1C674,733.32,679.52,720.3,675.74,708L645.9,610.78,739.4,658l33.67,110c4.07,13.29,17.81,22.07,32.85,22.07a38.33,38.33,0,0,0,8.83-1c18.14-4.24,28.93-20.56,24.06-36.45l-16.07-52.5,105.65,53.33a37.81,37.81,0,0,0,17,4c11.77,0,23.2-5.33,29.52-14.88C984.28,728.25,978.71,710.06,962.42,701.83ZM677.71,498.07l-81.22,19-25.16-12.71L623.53,478ZM599.05,359.33l-9.54,67.14L537.34,452.8V400.14Zm-176.73,9.78,46.95,31.06v52.7l-25.18-12.71Zm-93.48,141.6,81.15-19,25.16,12.7L383,530.73Zm78.67,138.72L417,582.28l52.25-26.38v52.7Zm176.78-9.75-46.93-31V556l25.13,12.7Z"/></svg>