<svg id="Layer_1" data-name="Layer 1" xmlns="http://www.w3.org/2000/svg" viewBox="0 0 1000 1000"><defs><style>.cls-1{fill:#848484;}</style></defs><path class="cls-1" d="M366.64,263.73H544.45c16.37,0,29.64-15.6,29.64-34.85S560.82,194,544.45,194H366.64c-16.36,0-29.63,15.6-29.63,34.85S350.28,263.73,366.64,263.73Z"/><path class="cls-1" d="M188.84,368.29H544.45c16.37,0,29.64-15.61,29.64-34.86s-13.27-34.85-29.64-34.85H188.84c-16.37,0-29.64,15.61-29.64,34.85S172.47,368.29,188.84,368.29Z"/><path class="cls-1" d="M99.92,472.84H455.55c16.36,0,29.63-15.6,29.63-34.85s-13.27-34.85-29.63-34.85H99.92c-16.37,0-29.64,15.6-29.64,34.85S83.55,472.84,99.92,472.84Z"/><path class="cls-1" d="M974.15,542.54c0-19.24-13.27-34.85-29.63-34.85h-889c-16.36,0-29.63,15.61-29.63,34.85S39.12,577.4,55.48,577.4h889C960.88,577.4,974.15,561.79,974.15,542.54Z"/><path class="cls-1" d="M944.52,612.25H99.93c-16.36,0-29.63,15.6-29.63,34.85S83.57,682,99.93,682H944.52c16.36,0,29.63-15.6,29.63-34.85S960.88,612.25,944.52,612.25Z"/><path class="cls-1" d="M366.64,716.8l-177.8,0c-16.37,0-29.64,15.61-29.64,34.86s13.27,34.85,29.64,34.85h177.8c16.37,0,29.64-15.6,29.64-34.85S383,716.8,366.64,716.8Z"/><path class="cls-1" d="M648.17,368.29H766.71c16.37,0,29.64-15.61,29.64-34.86s-13.27-34.85-29.64-34.85H648.17c-16.36,0-29.63,15.61-29.63,34.85S631.81,368.29,648.17,368.29Z"/><path class="cls-1" d="M514.82,438c0,19.25,13.27,34.85,29.63,34.85H855.61c16.37,0,29.64-15.6,29.64-34.85S872,403.14,855.61,403.14H544.45C528.09,403.14,514.82,418.74,514.82,438Z"/><path class="cls-1" d="M855.61,716.78l-400.06,0c-16.37,0-29.64,15.61-29.64,34.85s13.27,34.85,29.64,34.85H855.61c16.37,0,29.64-15.61,29.64-34.85S872,716.78,855.61,716.78Z"/></svg>