<svg id="Layer_1" data-name="Layer 1" xmlns="http://www.w3.org/2000/svg" viewBox="0 0 1000 1000"><defs><style>.cls-1{fill:#848484;}</style></defs><path class="cls-1" d="M366.64,265.31H544.45c16.37,0,29.64-15.61,29.64-34.85s-13.27-34.86-29.64-34.86H366.64c-16.36,0-29.63,15.61-29.63,34.86S350.28,265.31,366.64,265.31Z"/><path class="cls-1" d="M188.84,369.86H544.45c16.37,0,29.64-15.6,29.64-34.85s-13.27-34.85-29.64-34.85H188.84c-16.37,0-29.64,15.6-29.64,34.85S172.47,369.86,188.84,369.86Z"/><path class="cls-1" d="M99.92,474.42H455.55c16.36,0,29.63-15.61,29.63-34.85s-13.27-34.86-29.63-34.86H99.92c-16.37,0-29.64,15.61-29.64,34.86S83.55,474.42,99.92,474.42Z"/><path class="cls-1" d="M974.15,544.12c0-19.25-13.27-34.85-29.63-34.85h-889c-16.36,0-29.63,15.6-29.63,34.85S39.12,579,55.48,579h889C960.88,579,974.15,563.37,974.15,544.12Z"/><path class="cls-1" d="M944.52,613.82H99.93c-16.36,0-29.63,15.61-29.63,34.85s13.27,34.86,29.63,34.86H944.52c16.36,0,29.63-15.61,29.63-34.86S960.88,613.82,944.52,613.82Z"/><path class="cls-1" d="M366.64,718.38l-177.8,0c-16.37,0-29.64,15.61-29.64,34.85s13.27,34.85,29.64,34.85l177.8,0c16.37,0,29.64-15.6,29.64-34.85S383,718.38,366.64,718.38Z"/><path class="cls-1" d="M648.17,369.86H766.71c16.37,0,29.64-15.6,29.64-34.85s-13.27-34.85-29.64-34.85H648.17c-16.36,0-29.63,15.6-29.63,34.85S631.81,369.86,648.17,369.86Z"/><path class="cls-1" d="M514.82,439.57c0,19.24,13.27,34.85,29.63,34.85H855.61c16.37,0,29.64-15.61,29.64-34.85S872,404.71,855.61,404.71H544.45C528.09,404.71,514.82,420.32,514.82,439.57Z"/><path class="cls-1" d="M855.61,718.36l-400.06,0c-16.37,0-29.64,15.6-29.64,34.85s13.27,34.85,29.64,34.85l400.06,0c16.37,0,29.64-15.6,29.64-34.85S872,718.36,855.61,718.36Z"/></svg>