<svg xmlns="http://www.w3.org/2000/svg" viewBox="0 0 1000 1000"><defs><style>.cls-1{fill:#fff;stroke:#e0dede;stroke-miterlimit:10;stroke-width:21px;}.cls-2{fill:#0000b5;}</style></defs><g id="Layer_1" data-name="Layer 1"><circle class="cls-1" cx="501.75" cy="501.11" r="483.72"/><path class="cls-2" d="M636.55,344.5c-6.92-9.82-15.49-17.77-26-23.1-.63-.45-1.27-.86-1.9-1.31-3.48-2.55-7-5-10.74-7.38C589,304.84,578.47,299.8,566.79,297c-81-32-175.93-3-224.16,73.38a56.26,56.26,0,0,0-3.64,6.1A184.19,184.19,0,0,0,316,442c-21.43,112.22,14.79,274.41,14.79,274.41l2.17-.38c.14.68.27,1.34.41,2,0,0,162.64-25.74,259.28-86.35a184.13,184.13,0,0,0,53.76-46.17,56.78,56.78,0,0,0,4.34-5.63C704.06,507,696.11,408.1,636.55,344.5ZM416.73,468.84a83.05,83.05,0,1,1,34.72,69.32A86.53,86.53,0,0,1,416.73,468.84Z"/></g></svg>