<svg id="Layer_1" data-name="Layer 1" xmlns="http://www.w3.org/2000/svg" xmlns:xlink="http://www.w3.org/1999/xlink" viewBox="0 0 1000 1000"><defs><style>.cls-1{fill:url(#radial-gradient);}.cls-2{fill:#fff;}</style><radialGradient id="radial-gradient" cx="508.33" cy="436.71" r="241.05" gradientTransform="matrix(1.58, 1.6, -1.6, 1.58, 392.28, -1003.33)" gradientUnits="userSpaceOnUse"><stop offset="0" stop-color="#ffe610"/><stop offset="0.34" stop-color="#ffe311"/><stop offset="0.55" stop-color="#ffdb13"/><stop offset="0.73" stop-color="#ffcc17"/><stop offset="0.89" stop-color="#feb71c"/><stop offset="0.99" stop-color="#fea621"/></radialGradient></defs><ellipse class="cls-1" cx="500" cy="500" rx="484.69" ry="484.82" transform="translate(-207.11 500) rotate(-45)"/><path class="cls-2" d="M610.49,429.46l-91-76a29.56,29.56,0,0,0-38.91.14l-90.9,77.07c-20.07,16.77-17.52,55.86,14.63,65.86a18,18,0,0,0,16.93-3.73L469,452.92l.16,63.45-.42,106.31a31,31,0,0,0,30.85,31.1h0a31,31,0,0,0,30.93-27.86,40.61,40.61,0,0,0,1.28-10.2l-.43-163.64,47.92,39.66a17.93,17.93,0,0,0,16.94,3.65C628.29,485.24,630.64,446.14,610.49,429.46Z"/></svg>