<svg id="Layer_1" data-name="Layer 1" xmlns="http://www.w3.org/2000/svg" xmlns:xlink="http://www.w3.org/1999/xlink" viewBox="0 0 1000 1000"><defs><style>.cls-1{fill:url(#radial-gradient);}.cls-2{fill:#fff;}</style><radialGradient id="radial-gradient" cx="508.34" cy="437.6" r="241.05" gradientTransform="matrix(-1.57, -1.61, 1.6, -1.58, 598.21, 2003.29)" gradientUnits="userSpaceOnUse"><stop offset="0" stop-color="#ffe610"/><stop offset="0.34" stop-color="#ffe311"/><stop offset="0.55" stop-color="#ffdb13"/><stop offset="0.73" stop-color="#ffcc17"/><stop offset="0.89" stop-color="#feb71c"/><stop offset="0.99" stop-color="#fea621"/></radialGradient></defs><ellipse class="cls-1" cx="500" cy="497.98" rx="484.69" ry="484.82" transform="translate(-205.68 499.41) rotate(-45)"/><path class="cls-2" d="M389.13,567.92l90.58,76.49a29.55,29.55,0,0,0,38.91.07l91.32-76.58c20.15-16.66,17.81-55.77-14.28-65.94a17.94,17.94,0,0,0-16.95,3.64l-47.92,39.62.17-63.45,1-106.3a31,31,0,0,0-30.67-31.26h0A31,31,0,0,0,470.2,371.9a40.48,40.48,0,0,0-1.33,10.19l-.46,163.64-47.7-39.92a18,18,0,0,0-16.93-3.74C371.63,512.05,369.08,551.14,389.13,567.92Z"/></svg>